# This file uses centimeters as units for non-parametric coordinates.

mtllib Plataforms.mtl
g default
v -7.208322 0.471960 4.477274
v 1.746226 0.471960 4.477274
v -7.208322 1.467100 4.477274
v 1.746226 1.467100 4.477274
v -7.208322 1.467100 -4.477274
v 1.746226 1.467100 -4.477274
v -7.208322 0.471960 -4.477274
v 1.746226 0.471960 -4.477274
vt 0.376400 0.998007
vt 0.376400 0.501881
vt 0.438841 0.501881
vt 0.438841 0.998007
vt 0.308175 0.998007
vt 0.308175 0.501881
vt 0.370617 0.501881
vt 0.370617 0.998007
vt 0.071873 0.498118
vt 0.071873 0.001992
vt 0.567999 0.001992
vt 0.567999 0.498118
vt 0.444625 0.501882
vt 0.940751 0.501882
vt 0.940751 0.998008
vt 0.444625 0.998008
vt 0.001878 0.498118
vt 0.001878 0.001992
vt 0.064320 0.001992
vt 0.064320 0.498118
vt 0.575249 0.498119
vt 0.575249 0.001992
vt 0.637691 0.001992
vt 0.637691 0.498119
vn 0.000000 0.000000 1.000000
vn 0.000000 0.000000 1.000000
vn 0.000000 0.000000 1.000000
vn 0.000000 0.000000 1.000000
vn 0.000000 1.000000 0.000000
vn 0.000000 1.000000 0.000000
vn 0.000000 1.000000 0.000000
vn 0.000000 1.000000 0.000000
vn 0.000000 0.000000 -1.000000
vn 0.000000 0.000000 -1.000000
vn 0.000000 0.000000 -1.000000
vn 0.000000 0.000000 -1.000000
vn 0.000000 -1.000000 0.000000
vn 0.000000 -1.000000 0.000000
vn 0.000000 -1.000000 0.000000
vn 0.000000 -1.000000 0.000000
vn 1.000000 0.000000 0.000000
vn 1.000000 0.000000 0.000000
vn 1.000000 0.000000 0.000000
vn 1.000000 0.000000 0.000000
vn -1.000000 0.000000 0.000000
vn -1.000000 0.000000 0.000000
vn -1.000000 0.000000 0.000000
vn -1.000000 0.000000 0.000000
s off
g pCube1
usemtl lambert4SG
f 1/17/1 2/18/2 4/19/3 3/20/4
f 3/9/5 4/10/6 6/11/7 5/12/8
f 5/21/9 6/22/10 8/23/11 7/24/12
f 7/13/13 8/14/14 2/15/15 1/16/16
f 2/1/17 8/2/18 6/3/19 4/4/20
f 7/5/21 1/6/22 3/7/23 5/8/24
g default
v 8.481975 0.295398 9.343015
v 11.474808 0.295398 9.343015
v 8.481975 21.777515 9.343015
v 11.474808 21.777515 9.343015
v 8.481975 21.777515 -9.343015
v 11.474808 21.777515 -9.343015
v 8.481975 0.295398 -9.343015
v 11.474808 0.295398 -9.343015
vt 0.124170 0.001992
vt 0.542602 0.001992
vt 0.542602 0.498160
vt 0.124170 0.498160
vt 0.501455 0.501840
vt 0.919885 0.501840
vt 0.919885 0.998008
vt 0.501455 0.998008
vt 0.440760 0.501839
vt 0.495799 0.501839
vt 0.495799 0.920271
vt 0.440760 0.920271
vt 0.380066 0.501840
vt 0.435105 0.501840
vt 0.435105 0.920271
vt 0.380066 0.920271
vt 0.001836 0.001992
vt 0.056875 0.001992
vt 0.056875 0.498160
vt 0.001836 0.498160
vt 0.063093 0.001993
vt 0.118132 0.001993
vt 0.118132 0.498163
vt 0.063093 0.498163
vn 0.000000 0.000000 1.000000
vn 0.000000 0.000000 1.000000
vn 0.000000 0.000000 1.000000
vn 0.000000 0.000000 1.000000
vn 0.000000 1.000000 0.000000
vn 0.000000 1.000000 0.000000
vn 0.000000 1.000000 0.000000
vn 0.000000 1.000000 0.000000
vn 0.000000 0.000000 -1.000000
vn 0.000000 0.000000 -1.000000
vn 0.000000 0.000000 -1.000000
vn 0.000000 0.000000 -1.000000
vn 0.000000 -1.000000 0.000000
vn 0.000000 -1.000000 0.000000
vn 0.000000 -1.000000 0.000000
vn 0.000000 -1.000000 0.000000
vn 1.000000 0.000000 0.000000
vn 1.000000 0.000000 0.000000
vn 1.000000 0.000000 0.000000
vn 1.000000 0.000000 0.000000
vn -1.000000 0.000000 0.000000
vn -1.000000 0.000000 0.000000
vn -1.000000 0.000000 0.000000
vn -1.000000 0.000000 0.000000
s off
g pCube2
usemtl lambert3SG
f 9/41/25 10/42/26 12/43/27 11/44/28
f 11/33/29 12/34/30 14/35/31 13/36/32
f 13/45/33 14/46/34 16/47/35 15/48/36
f 15/37/37 16/38/38 10/39/39 9/40/40
f 10/25/41 16/26/42 14/27/43 12/28/44
f 15/29/45 9/30/46 11/31/47 13/32/48
g default
v 3.493398 12.004669 -1.606177
v 8.567329 12.004669 -1.606177
v 3.493398 12.568547 -1.606177
v 8.567329 12.568547 -1.606177
v 3.493398 12.568547 -6.680109
v 8.567329 12.568547 -6.680109
v 3.493398 12.004669 -6.680109
v 8.567329 12.004669 -6.680109
vt 0.376400 0.998007
vt 0.376400 0.501881
vt 0.438841 0.501881
vt 0.438841 0.998007
vt 0.308175 0.998007
vt 0.308175 0.501881
vt 0.370617 0.501881
vt 0.370617 0.998007
vt 0.071873 0.498118
vt 0.071873 0.001992
vt 0.567999 0.001992
vt 0.567999 0.498118
vt 0.444625 0.501882
vt 0.940751 0.501882
vt 0.940751 0.998008
vt 0.444625 0.998008
vt 0.001878 0.498118
vt 0.001878 0.001992
vt 0.064320 0.001992
vt 0.064320 0.498118
vt 0.575249 0.498119
vt 0.575249 0.001992
vt 0.637691 0.001992
vt 0.637691 0.498119
vn 0.000000 0.000000 1.000000
vn 0.000000 0.000000 1.000000
vn 0.000000 0.000000 1.000000
vn 0.000000 0.000000 1.000000
vn 0.000000 1.000000 0.000000
vn 0.000000 1.000000 0.000000
vn 0.000000 1.000000 0.000000
vn 0.000000 1.000000 0.000000
vn 0.000000 0.000000 -1.000000
vn 0.000000 0.000000 -1.000000
vn 0.000000 0.000000 -1.000000
vn 0.000000 0.000000 -1.000000
vn 0.000000 -1.000000 0.000000
vn 0.000000 -1.000000 0.000000
vn 0.000000 -1.000000 0.000000
vn 0.000000 -1.000000 0.000000
vn 1.000000 0.000000 0.000000
vn 1.000000 0.000000 0.000000
vn 1.000000 0.000000 0.000000
vn 1.000000 0.000000 0.000000
vn -1.000000 0.000000 0.000000
vn -1.000000 0.000000 0.000000
vn -1.000000 0.000000 0.000000
vn -1.000000 0.000000 0.000000
s off
g pCube3
usemtl lambert2SG
f 17/65/49 18/66/50 20/67/51 19/68/52
f 19/57/53 20/58/54 22/59/55 21/60/56
f 21/69/57 22/70/58 24/71/59 23/72/60
f 23/61/61 24/62/62 18/63/63 17/64/64
f 18/49/65 24/50/66 22/51/67 20/52/68
f 23/53/69 17/54/70 19/55/71 21/56/72
